<svg width="64" height="64" viewBox="0 0 64 64" fill="none" xmlns="http://www.w3.org/2000/svg">
<path d="M34.5 9L38.2 15.4C39.1 15.8 40 16.1 40.9 16.5L48.1 14.5L53.5 19.9L51.5 27.1C51.9 28 52.2 28.9 52.6 29.8L59 33.5V41.5L52.6 45.2C52.2 46.1 51.9 47 51.5 47.9L53.5 55.1L48.1 60.5L40.9 58.5C40 58.9 39.1 59.2 38.2 59.6L34.5 66H26.5L22.8 59.6C21.9 59.2 21 58.9 20.1 58.5L12.9 60.5L7.5 55.1L9.5 47.9C9.1 47 8.8 46.1 8.4 45.2L2 41.5V33.5L8.4 29.8C8.8 28.9 9.1 28 9.5 27.1L7.5 19.9L12.9 14.5L20.1 16.5C21 16.1 21.9 15.8 22.8 15.4L26.5 9H34.5ZM30.5 23C24.701 23 20 27.701 20 33.5C20 39.299 24.701 44 30.5 44C36.299 44 41 39.299 41 33.5C41 27.701 36.299 23 30.5 23Z" fill="#5312C8"/>
</svg>
